<svg width="1392" height="288" viewBox="0 0 1392 288" fill="none" xmlns="http://www.w3.org/2000/svg">
<g opacity="0.16" clip-path="url(#clip0_993_2228)">
<mask id="mask0_993_2228" style="mask-type:alpha" maskUnits="userSpaceOnUse" x="0" y="-1" width="1391" height="329">
<path d="M0 -0.125488H1391V327.875H0V-0.125488Z" fill="url(#paint0_linear_993_2228)"/>
</mask>
<g mask="url(#mask0_993_2228)">
<path d="M312.258 0.867188H267.014V321.686H312.258V0.867188Z" fill="black"/>
<path d="M449.242 116.185C410.1 116.185 374.009 146.978 371.383 186.423H527.073C524.476 146.978 488.357 116.185 449.217 116.185M570.995 221.106H371.383C380.512 258.381 410.95 286.581 450.542 286.581C478.804 286.581 506.216 271.397 519.245 246.264H564.465C546.206 295.258 501.416 327.771 448.792 327.771C380.087 327.771 326.139 268.38 326.139 201.184C326.139 133.988 379.187 75.0198 449.642 75.0198C520.097 75.0198 572.294 130.946 572.294 198.59C572.294 205.971 571.842 213.775 570.995 221.131" fill="black"/>
<path d="M755.174 321.686V191.185C755.174 150.419 742.992 116.185 695.148 116.185C650.78 116.185 631.647 150.444 631.647 190.761V321.686H586.427V81.5022H628.619V107.084H629.496C646.878 84.0953 672.114 74.9946 699.948 74.9946C734.311 74.9946 766.478 88.4341 785.184 117.906C796.914 136.107 800.415 158.223 800.415 179.466V321.665H755.2L755.174 321.686Z" fill="black"/>
<path d="M838.608 0.867188V81.5024H799.142V122.693H838.608V321.686H883.854V122.693H923.418V81.5024H883.854V0.867188H838.608Z" fill="black"/>
<path d="M981.267 81.5029H936.052V321.686H981.267V81.5029Z" fill="black"/>
<path d="M1060.6 122.693V321.686H1015.38V122.693H994.075V81.5024H1015.38V69.8085C1015.38 45.9721 1023.64 26.8981 1044.1 13.8829C1064.53 0.867191 1079.34 0.867188 1102.8 0.867188V42.0576C1084.08 42.0576 1060.6 46.3963 1060.6 69.8085V81.5024H1102.8V122.693H1060.6Z" fill="black"/>
<path d="M1289.1 321.686V295.682H1288.23C1274.32 319.096 1243.01 327.771 1217.34 327.771C1191.68 327.771 1167.78 320.391 1148.64 303.935C1122.1 280.946 1116.9 244.543 1116.9 211.581V81.5029H1162.12V211.581C1162.12 254.068 1174.73 286.581 1222.14 286.581C1269.57 286.581 1285.2 251.899 1285.2 210.285V81.5275H1330.42V321.711H1289.1V321.686Z" fill="black"/>
<path d="M1391.49 0.867188H1346.27V321.686H1391.49V0.867188Z" fill="black"/>
<path d="M124.803 116.185C78.2581 116.185 44.3439 156.079 44.3439 201.158C44.3439 246.239 78.2581 286.556 126.104 286.556C173.949 286.556 207.438 247.959 207.438 202.006C207.438 156.054 171.348 116.16 124.803 116.16M130.906 327.745C98.7171 327.745 63.502 315.604 46.0944 286.98H45.2192V401.874H0V81.5022H41.3177V118.354H42.193C62.2017 89.7304 93.5148 74.9946 127.855 74.9946C202.211 74.9946 252.658 132.217 252.658 204.625C252.658 272.693 200.035 327.745 130.881 327.745" fill="black"/>
<path d="M981.267 0.867188H936.052V53.7514H981.267V0.867188Z" fill="black"/>
</g>
</g>
<defs>
<linearGradient id="paint0_linear_993_2228" x1="695.5" y1="-0.125488" x2="695.5" y2="327.875" gradientUnits="userSpaceOnUse">
<stop/>
<stop offset="0.879808" stop-opacity="0"/>
</linearGradient>
<clipPath id="clip0_993_2228">
<rect width="1392" height="401.874" fill="white"/>
</clipPath>
</defs>
</svg>
