<svg width="64" height="64" viewBox="0 0 64 64" fill="none" xmlns="http://www.w3.org/2000/svg">
<path d="M11.9945 42.9334H9.0875C6.22887 42.9334 3.91162 45.2508 3.91162 48.1093V53.0164H9.06875" stroke="#14191F" stroke-width="2" stroke-miterlimit="10"/>
<path d="M52.5056 21.0666H54.9125C57.7711 21.0666 60.0884 18.7492 60.0884 15.8907V10.9836H54.8062" stroke="#14191F" stroke-width="2" stroke-miterlimit="10"/>
<path d="M23.7068 55.5089C24.1839 55.6148 24.6798 55.6706 25.1888 55.6706C28.9505 55.6706 32 52.6211 32 48.8594V15.1406C32 11.3789 28.9505 8.32938 25.1888 8.32938C21.7246 8.32938 18.8666 10.916 18.4358 14.2629C18.4163 14.2626 18.397 14.2614 18.3775 14.2614C14.6158 14.2614 11.5663 17.3109 11.5663 21.0726V23.742C8.564 23.742 6.13013 26.1759 6.13013 29.1781V34.8219C6.13013 37.8241 8.564 40.258 11.5663 40.258V42.9274C11.5663 44.9289 12.4296 46.7287 13.8041 47.975" stroke="#14191F" stroke-width="2" stroke-miterlimit="10"/>
<path d="M11.5662 23.742V25.8964C11.5662 28.9564 14.0468 31.437 17.1068 31.437H18.3775" stroke="#14191F" stroke-width="2" stroke-miterlimit="10"/>
<path d="M18.4556 47.9665C18.9541 44.6958 21.7788 42.1899 25.1888 42.1899" stroke="#14191F" stroke-width="2" stroke-miterlimit="10"/>
<path d="M18.3775 14.115V14.9987C18.3775 18.7605 21.427 21.81 25.1888 21.81" stroke="#14191F" stroke-width="2" stroke-miterlimit="10"/>
<path d="M50.1959 16.0251C51.5705 17.2712 52.4338 19.0712 52.4338 21.0727V23.7421C55.436 23.7421 57.8699 26.176 57.8699 29.1782V34.822C57.8699 37.8242 55.436 40.2581 52.4338 40.2581V42.9275C52.4338 46.6892 49.3843 49.7387 45.6225 49.7387C45.603 49.7387 45.5838 49.7375 45.5643 49.7373C45.1334 53.0841 42.2754 55.6707 38.8112 55.6707C35.0495 55.6707 32 52.6212 32 48.8595V15.1407C32 11.379 35.0495 8.3295 38.8112 8.3295C39.3551 8.3295 39.884 8.39325 40.3909 8.51362" stroke="#14191F" stroke-width="2" stroke-miterlimit="10"/>
<path d="M52.4337 23.742V25.8964C52.4337 28.9564 49.9531 31.437 46.8931 31.437H45.6225" stroke="#14191F" stroke-width="2" stroke-miterlimit="10"/>
<path d="M45.6225 49.885V49.0013C45.6225 45.2395 42.573 42.19 38.8113 42.19" stroke="#14191F" stroke-width="2" stroke-miterlimit="10"/>
<path d="M45.5368 16.0825C45.0177 19.3291 42.2042 21.81 38.8113 21.81" stroke="#14191F" stroke-width="2" stroke-miterlimit="10"/>
<path d="M23.6708 54.7661C23.6708 52.7753 22.3891 51.0849 20.6063 50.4718C19.9933 48.689 18.3028 47.4073 16.3119 47.4073C14.321 47.4073 12.6305 48.6889 12.0175 50.4718C10.2348 51.0848 8.953 52.7753 8.953 54.7661C8.953 56.757 10.2346 58.4474 12.0175 59.0605C12.6306 60.8434 14.3211 62.125 16.312 62.125C18.3029 62.125 19.9933 60.8434 20.6064 59.0605C22.3891 58.4475 23.6708 56.757 23.6708 54.7661Z" stroke="#14191F" stroke-width="2" stroke-miterlimit="10"/>
<path d="M40.3292 9.23388C40.3292 11.2248 41.6108 12.9151 43.3937 13.5282C44.0067 15.311 45.6972 16.5928 47.6881 16.5928C49.679 16.5928 51.3695 15.3111 51.9825 13.5282C53.7652 12.9152 55.047 11.2248 55.047 9.23388C55.047 7.243 53.7653 5.55262 51.9825 4.9395C51.3693 3.15662 49.6788 1.875 47.688 1.875C45.6971 1.875 44.0067 3.15662 43.3936 4.9395C41.6108 5.5525 40.3292 7.243 40.3292 9.23388Z" stroke="#14191F" stroke-width="2" stroke-miterlimit="10"/>
</svg>
