<svg width="64" height="64" viewBox="0 0 64 64" fill="none" xmlns="http://www.w3.org/2000/svg">
<path d="M23.825 50.8301H62.125V9.41211H54.5938" stroke="#14191F" stroke-width="2" stroke-miterlimit="10"/>
<path d="M16.9375 9.41211H9.40625V36.4112" stroke="#14191F" stroke-width="2" stroke-miterlimit="10"/>
<path d="M24.4688 9.41211H47.0625" stroke="#14191F" stroke-width="2" stroke-miterlimit="10"/>
<path d="M9.40625 20.709H62.125" stroke="#14191F" stroke-width="2" stroke-miterlimit="10"/>
<path d="M47.0625 13.17L54.5938 13.17L54.5938 5.63873L47.0625 5.63873L47.0625 13.17Z" stroke="#14191F" stroke-width="2" stroke-miterlimit="10"/>
<path d="M16.9375 13.17L24.4688 13.17L24.4688 5.63873L16.9375 5.63873L16.9375 13.17Z" stroke="#14191F" stroke-width="2" stroke-miterlimit="10"/>
<path d="M13.1719 58.3614C19.411 58.3614 24.4688 53.3036 24.4688 47.0645C24.4688 40.8254 19.411 35.7676 13.1719 35.7676C6.93278 35.7676 1.875 40.8254 1.875 47.0645C1.875 53.3036 6.93278 58.3614 13.1719 58.3614Z" stroke="#14191F" stroke-width="2" stroke-miterlimit="10"/>
<path d="M30.125 39.5333H33.875" stroke="#14191F" stroke-width="2" stroke-miterlimit="10"/>
<path d="M48.9531 32.002H56.4688" stroke="#14191F" stroke-width="2" stroke-miterlimit="10"/>
<path d="M37.6562 32.002H45.1719" stroke="#14191F" stroke-width="2" stroke-miterlimit="10"/>
<path d="M26.3594 32.002H33.875" stroke="#14191F" stroke-width="2" stroke-miterlimit="10"/>
<path d="M48.9531 39.5333H56.4688" stroke="#14191F" stroke-width="2" stroke-miterlimit="10"/>
<path d="M37.6562 39.5333H45.1719" stroke="#14191F" stroke-width="2" stroke-miterlimit="10"/>
<path d="M18.0919 43.7619L12.2405 49.6131L8.25186 45.6246" stroke="#14191F" stroke-width="2" stroke-miterlimit="10"/>
</svg>
