<svg width="64" height="64" viewBox="0 0 64 64" fill="none" xmlns="http://www.w3.org/2000/svg">
<g clip-path="url(#clip0_1216_451)">
<path d="M61.6808 22.845C61.5702 19.4169 62.3443 14.2194 60.5749 11.0124C60.0218 9.90658 59.1373 9.13248 58.0315 8.57956C57.4786 4.48791 55.5986 0.285681 51.0647 0.175096C49.7375 0.175096 49.4057 2.16563 50.7329 2.49738C53.1658 2.93972 54.2716 5.15142 54.7138 7.47371C51.949 6.92078 48.742 6.8102 45.867 6.92078C44.9823 3.71382 42.9918 1.05978 39.5635 0.838606C38.2365 0.728021 38.0155 2.71855 39.2317 3.05031C40.6693 3.49265 41.8858 5.15142 42.66 7.03137C41.6646 7.03137 40.7803 7.14195 40.006 7.14195C37.5731 7.14195 35.251 7.03137 32.818 7.03137C31.9333 2.82914 28.3948 -2.47894 23.9714 1.28095C23.0867 2.05504 24.1928 3.16089 25.1878 2.82914C27.9525 1.6127 29.2795 4.70908 29.611 7.03137C25.4088 7.03137 21.2066 7.14195 17.0044 7.25254C16.562 5.81493 15.8985 4.37733 14.9033 3.38206C13.7974 2.16563 11.4751 0.728021 9.92696 2.16563C9.59521 2.49738 9.59521 3.05031 9.92696 3.38206C10.0375 3.49265 10.1481 3.60323 10.3693 3.60323C12.3598 3.60323 13.2445 5.59376 13.6868 7.36312C10.9222 7.47371 8.26819 7.69488 5.50357 7.91605C4.28714 8.02663 3.8448 9.35365 4.39773 10.1277C2.84954 20.4122 3.18129 31.1389 2.73895 41.4233C2.51779 46.842 0.416676 58.1216 5.94591 61.7708C8.82111 63.6507 13.2445 63.098 16.4515 63.2084C22.3124 63.319 28.1734 63.4297 34.0344 63.5403C39.5637 63.6507 45.2035 64.0934 50.7327 63.9825C53.1656 63.8721 55.9302 63.6507 57.9205 62.1027C59.9113 60.5547 60.3534 58.4534 60.7956 56.0205C61.5697 50.7124 61.4593 45.0726 61.5697 39.7645C61.902 34.1247 61.902 28.4849 61.6808 22.845ZM58.916 46.0677C58.8056 50.3805 59.4691 55.799 56.4831 59.0061C53.4975 62.3235 49.2953 61.439 45.2033 61.439C41.2224 61.439 37.1306 61.3286 33.1496 61.3286C29.1687 61.2182 25.0771 61.2182 21.0958 61.1073C16.4513 60.9969 12.1385 61.7708 8.26801 59.2275C5.06105 57.1264 5.17164 56.0205 4.95047 52.2605C4.83988 50.1593 4.83988 47.9476 4.95047 45.8465C5.06105 41.9761 5.28222 38.1056 5.39281 34.2351C5.72456 26.4942 6.49865 18.532 5.94573 10.7909C8.82093 10.6803 11.5856 10.5697 14.4608 10.4591C14.4608 10.6803 14.4608 10.9015 14.4608 11.1227C14.4608 11.8967 13.9078 14.4402 12.5808 13.1132C11.9173 12.3391 10.4797 12.6708 10.2585 13.7767C9.70561 16.2096 11.9173 17.7578 14.2396 17.2048C16.8936 16.5413 17.9995 13.6661 17.8889 11.2332C17.8889 10.9015 17.8889 10.6803 17.7783 10.3486C21.8699 10.238 25.851 10.0168 29.9424 9.90622C29.832 11.7862 29.2789 14.219 27.0672 13.3344C25.7402 12.7814 24.9661 14.4402 25.4085 15.5461C26.4037 17.6472 29.1683 17.6472 30.8271 16.3201C32.5965 14.8825 33.1492 12.2285 33.1492 9.90622C36.5777 9.90622 40.0055 9.90622 43.4336 10.0168C43.7653 12.7814 42.8807 15.3249 40.3372 15.2143C39.6737 15.2143 39.0102 15.8778 39.0102 16.5413C39.0102 16.6519 39.0102 16.8731 39.0102 16.9837C39.0102 17.8683 39.5631 18.3107 40.3372 18.6424C44.429 20.3012 46.7511 15.2143 46.4194 10.0168C48.6311 10.1274 50.8426 10.238 52.9437 10.3486C53.7176 10.4591 54.4917 10.5697 55.0448 10.7909C55.0448 11.1227 55.0448 11.4544 55.0448 11.7862C55.0448 13.2238 55.2662 18.4213 52.9437 17.5366C52.059 17.2048 51.2847 18.0895 51.1743 18.8636C51.1743 19.0848 51.1743 19.1954 51.0639 19.4165C50.9533 19.9695 51.5061 20.633 51.9486 20.9647C56.4828 23.9505 57.81 17.9789 58.1414 14.4402C59.026 16.9837 58.8049 20.3012 58.9154 23.0658C59.0257 26.6046 59.0257 30.1433 59.0257 33.5716C59.2479 37.6636 59.1373 41.8655 58.916 46.0677Z" fill="#3066BE"/>
<path d="M53.9399 26.6047C54.4928 26.1624 54.2716 25.0565 53.3866 24.946C40.4482 23.8401 26.6251 24.8354 13.6867 26.1624C13.2443 25.8306 12.3596 26.0518 12.2491 26.8259C11.0326 35.6727 11.0326 44.6301 10.4797 53.5875C10.4797 54.251 11.0326 54.6932 11.6961 54.8037C18.9947 55.1355 26.2933 55.4672 33.5919 55.799C36.9095 55.9096 40.1164 56.1308 43.434 56.2413C45.5351 56.3517 49.7375 57.3472 51.8386 56.4625C54.7138 55.3567 53.8293 51.9285 53.8293 49.2747C53.9399 41.8655 53.9399 34.5669 54.0504 27.1577C54.0503 26.9365 54.0503 26.7155 53.9399 26.6047ZM51.3964 51.4867C52.0599 53.6982 51.2858 54.4723 48.9635 54.03C47.5259 53.9196 46.0883 53.9196 44.5402 53.8088C34.0346 53.3665 23.5292 52.9242 13.0237 52.4816C13.466 44.2983 14.2401 35.8937 14.019 27.7106C26.515 27.3788 39.2323 27.6 51.6178 26.9365C51.6178 27.0471 51.6178 27.0471 51.6178 27.1577C51.5074 33.0187 51.5074 38.9903 51.3966 44.8511C51.3964 46.7314 51.8386 49.6064 51.3964 51.4867Z" fill="#3066BE"/>
<path d="M39.6744 34.3457C36.9098 31.9128 33.5923 36.115 31.7125 39.6538C30.8278 38.2161 29.9432 36.7787 28.7269 35.8937C27.3997 34.788 25.0776 34.4561 24.0824 36.2256C21.7601 40.2065 29.0587 44.4087 31.8233 45.5146C32.155 45.6252 32.4866 45.6252 32.708 45.5146C33.0399 45.5146 33.4819 45.5146 33.9242 45.1828C36.3569 43.5244 43.5449 37.8844 39.6744 34.3457Z" fill="#3066BE"/>
</g>
<defs>
<clipPath id="clip0_1216_451">
<rect width="64" height="64" fill="white"/>
</clipPath>
</defs>
</svg>
