<svg width="64" height="64" viewBox="0 0 64 64" fill="none" xmlns="http://www.w3.org/2000/svg">
<g clip-path="url(#clip0_736_1390)">
<path d="M31.9999 24.7261C28.4948 24.7261 25.6534 21.8848 25.6534 18.3796V13.8464C25.6534 10.3414 28.4948 7.5 31.9999 7.5C35.5049 7.5 38.3464 10.3414 38.3464 13.8465V18.3797C38.3464 21.8847 35.5049 24.7261 31.9999 24.7261Z" stroke="#14191F" stroke-width="2" stroke-miterlimit="10"/>
<path d="M14.5472 50.452L18.4004 43.0856" stroke="#14191F" stroke-width="2" stroke-miterlimit="10"/>
<path d="M29.25 62.125H15.3297C12.2062 62.125 9.67395 59.5929 9.67395 56.4692C9.67395 52.892 12.9533 50.2134 16.4586 50.9274L32.25 54.1441" stroke="#14191F" stroke-width="2" stroke-miterlimit="10"/>
<path d="M49.4527 50.452L45.5996 43.0856" stroke="#14191F" stroke-width="2" stroke-miterlimit="10"/>
<path d="M28.1467 62.125H48.6702C51.7937 62.125 54.326 59.5929 54.326 56.4692C54.326 52.892 51.0466 50.2134 47.5414 50.9274L34.4764 53.5887C30.793 54.339 28.1467 57.5786 28.1467 61.3376V62.125Z" stroke="#14191F" stroke-width="2" stroke-miterlimit="10"/>
<path d="M30.6967 35.5H16.8137" stroke="#14191F" stroke-width="2" stroke-miterlimit="10"/>
<path d="M47.1863 35.5H30.6968C28.3497 35.5 26.4469 37.4028 26.4469 39.7499C26.4469 42.097 28.3497 43.9998 30.6968 43.9998M30.6968 43.9998H43.2695C46.8575 43.9998 49.5823 40.7709 48.9792 37.234C47.7473 30.0098 41.4864 24.7261 34.1579 24.7261H29.8423C22.5138 24.7261 16.2529 30.0098 15.021 37.234C14.4179 40.7709 17.1428 43.9998 20.7307 43.9998H30.6968Z" stroke="#14191F" stroke-width="2" stroke-miterlimit="10"/>
<path d="M45.5 9.25C50.6086 9.25 54.75 13.3914 54.75 18.5C54.75 13.3914 58.8914 9.25 64 9.25C58.8914 9.25 54.75 5.10862 54.75 0C54.75 5.10862 50.6086 9.25 45.5 9.25Z" stroke="#14191F" stroke-width="2" stroke-miterlimit="10"/>
<path d="M0 9.25C5.10862 9.25 9.25 13.3914 9.25 18.5C9.25 13.3914 13.3914 9.25 18.5 9.25C13.3914 9.25 9.25 5.10862 9.25 0C9.25 5.10862 5.10862 9.25 0 9.25Z" stroke="#14191F" stroke-width="2" stroke-miterlimit="10"/>
</g>
<defs>
<clipPath id="clip0_736_1390">
<rect width="64" height="64" fill="white"/>
</clipPath>
</defs>
</svg>
