<svg width="20" height="16" viewBox="0 0 20 16" fill="none" xmlns="http://www.w3.org/2000/svg">
<path d="M0 15.7917V13.75H19.1667V15.7917H0ZM2.95833 12.75C2.39694 12.75 1.91632 12.5501 1.51646 12.1502C1.1166 11.7505 0.916667 11.2699 0.916667 10.7083V2.04167C0.916667 1.48028 1.1166 0.999652 1.51646 0.599791C1.91632 0.19993 2.39694 0 2.95833 0H16.2083C16.7697 0 17.2503 0.19993 17.6502 0.599791C18.0501 0.999652 18.25 1.48028 18.25 2.04167V10.7083C18.25 11.2699 18.0501 11.7505 17.6502 12.1502C17.2503 12.5501 16.7697 12.75 16.2083 12.75H2.95833ZM2.95833 10.7083H16.2083V2.04167H2.95833V10.7083Z" fill="#14191F" fill-opacity="0.64"/>
</svg>
