<svg width="26" height="26" viewBox="0 0 26 26" fill="none" xmlns="http://www.w3.org/2000/svg">
<path d="M7.15233 18.181L15.5283 15.542L18.1673 7.166L9.79133 9.805L7.15233 18.181ZM12.6583 14.0853C12.2668 14.0853 11.9338 13.9454 11.6593 13.6657C11.3851 13.3859 11.248 13.0501 11.248 12.6583C11.248 12.2668 11.3879 11.9338 11.6677 11.6593C11.9474 11.3851 12.2832 11.248 12.675 11.248C13.0666 11.248 13.3996 11.3879 13.674 11.6677C13.9482 11.9474 14.0853 12.2832 14.0853 12.675C14.0853 13.0666 13.9454 13.3996 13.6657 13.674C13.3859 13.9482 13.0501 14.0853 12.6583 14.0853ZM12.6747 25.3333C10.9211 25.3333 9.27533 25.0009 7.73733 24.336C6.19911 23.6711 4.85767 22.7664 3.713 21.622C2.56811 20.4778 1.663 19.1364 0.997666 17.598C0.332555 16.0593 0 14.4126 0 12.6577C0 10.9086 0.332444 9.26445 0.997333 7.72533C1.66222 6.186 2.56689 4.84622 3.71133 3.706C4.85556 2.56578 6.19689 1.663 7.73533 0.997666C9.274 0.332555 10.9208 0 12.6757 0C14.4248 0 16.0689 0.332444 17.608 0.997333C19.1473 1.66222 20.4871 2.56456 21.6273 3.70433C22.7676 4.84411 23.6703 6.18445 24.3357 7.72533C25.0008 9.26622 25.3333 10.9107 25.3333 12.6587C25.3333 14.4122 25.0009 16.058 24.336 17.596C23.6711 19.1342 22.7688 20.4743 21.629 21.6163C20.4892 22.7586 19.1489 23.6636 17.608 24.3313C16.0671 24.9993 14.4227 25.3333 12.6747 25.3333ZM12.6773 23.658C15.7278 23.658 18.3206 22.5883 20.4557 20.449C22.5906 18.3097 23.658 15.712 23.658 12.656C23.658 9.60556 22.5906 7.01278 20.4557 4.87767C18.3206 2.74278 15.7278 1.67533 12.6773 1.67533C9.62133 1.67533 7.02367 2.74278 4.88433 4.87767C2.745 7.01278 1.67533 9.60556 1.67533 12.656C1.67533 15.712 2.745 18.3097 4.88433 20.449C7.02367 22.5883 9.62133 23.658 12.6773 23.658Z" fill="#14191F"/>
</svg>
