<svg width="115" height="130" viewBox="0 0 115 130" fill="none" xmlns="http://www.w3.org/2000/svg">
<path d="M39.9815 19.9874C34.4701 19.9874 29.9869 15.5045 29.9869 9.99369C29.9869 4.48284 34.4701 0 39.9815 0C45.4928 0 49.976 4.48284 49.976 9.99369C49.976 15.5045 45.4928 19.9874 39.9815 19.9874Z" fill="#02723A"/>
<path d="M39.9882 41.643C41.5826 44.2686 42.9343 47.0662 44.0062 50.0019H51.7389C57.53 40.1431 68.1684 33.9008 80 33.9008V19.5254C63.4054 19.5254 48.4557 28.0697 39.9916 41.643H39.9882Z" fill="#0996D4"/>
<path d="M0 19.5254V33.9008C11.808 33.9008 22.4464 40.1431 28.2408 50.0019H44.0062C42.9343 47.0662 41.5826 44.2686 39.9882 41.643C31.5274 28.09 16.5744 19.5288 0.00337155 19.5288L0 19.5254Z" fill="#E490A7"/>
<path d="M39.9882 71.6381C41.5826 74.2637 42.9343 77.0613 44.0062 79.9971H51.7389C57.53 70.1382 68.1684 63.8959 80 63.8959V49.5205C63.4054 49.5205 48.4557 58.0649 39.9916 71.6381H39.9882Z" fill="#6633CC"/>
<path d="M0 49.5234V63.8989C11.808 63.8989 22.4464 70.1411 28.2408 80H44.0062C42.9343 77.0642 41.5826 74.2667 39.9882 71.641C31.5274 58.088 16.5744 49.5268 0.00337155 49.5268L0 49.5234Z" fill="#EF5038"/>
<path d="M1.58203 122V107.195H3.74023V120.018H8.87695V122H1.58203ZM10.4246 122V110.916H12.5047V122H10.4246ZM10.4246 109.637V107.195H12.5047V109.637H10.4246ZM14.316 110.916H16.5328L19.4332 118.836H19.4723L22.3141 110.916H24.5309L20.1754 122H18.7105L14.316 110.916ZM25.3656 116.443C25.3656 114.832 25.9125 113.455 27.0063 112.322C28.1 111.189 29.4477 110.623 31.0492 110.623C32.6117 110.623 33.9398 111.189 35.0336 112.303C36.1273 113.416 36.684 114.754 36.684 116.316C36.684 116.668 36.6645 117.01 36.6254 117.361H27.4457C27.6605 118.24 28.0902 118.963 28.7543 119.529C29.4086 120.096 30.1898 120.379 31.0883 120.379C31.7328 120.379 32.348 120.213 32.934 119.881C33.5102 119.549 33.9496 119.1 34.2426 118.523H36.3227C35.893 119.656 35.1996 120.574 34.2426 121.258C33.2855 121.941 32.2016 122.283 31.0004 122.283C29.4379 122.283 28.1 121.707 27.0063 120.545C25.9125 119.383 25.3656 118.016 25.3656 116.443ZM27.4457 115.76H34.6039C34.5453 114.861 34.1645 114.09 33.4516 113.465C32.7387 112.84 31.9281 112.518 31.0199 112.518C30.1117 112.518 29.3012 112.84 28.5883 113.465C27.8754 114.09 27.4945 114.861 27.4457 115.76ZM45.0527 122V107.195H47.1328V112.459H47.1719C48.0605 111.238 49.3301 110.623 50.9707 110.623C52.5527 110.623 53.9102 111.199 55.0332 112.352C56.1465 113.504 56.7129 114.881 56.7129 116.463C56.7129 118.084 56.166 119.451 55.0723 120.584C53.9785 121.717 52.6211 122.283 51.0195 122.283C50.2578 122.283 49.5254 122.127 48.8418 121.795C48.1582 121.463 47.5918 121.004 47.1523 120.398H47.1133V122H45.0527ZM47.0742 116.424C47.0742 117.518 47.4258 118.455 48.1484 119.227C48.8711 119.998 49.7695 120.379 50.8535 120.379C51.9082 120.379 52.7969 119.998 53.5293 119.217C54.2617 118.436 54.6328 117.518 54.6328 116.463C54.6328 115.398 54.2617 114.471 53.5391 113.689C52.8164 112.908 51.918 112.518 50.8535 112.518C49.7988 112.518 48.9004 112.908 48.168 113.67C47.4355 114.441 47.0742 115.359 47.0742 116.424ZM59.0223 122V110.916H61.1023V122H59.0223ZM59.0223 109.637V107.195H61.1023V109.637H59.0223ZM63.4117 116.424C63.4117 115.574 63.607 114.744 64.0074 113.943C64.5152 112.889 65.2379 112.078 66.1754 111.492C67.1129 110.916 68.1773 110.623 69.3688 110.623C70.0719 110.623 70.775 110.76 71.4781 111.033C72.1813 111.307 72.7477 111.697 73.1871 112.195V110.916H75.2672V120.496C75.2672 122.352 74.7301 123.797 73.6559 124.822C72.5816 125.848 71.1266 126.355 69.2711 126.355C68.0406 126.355 66.9469 126.053 65.9801 125.438C65.0133 124.832 64.2906 123.973 63.8121 122.859H66.1266C66.8688 123.934 67.9234 124.461 69.2906 124.461C70.5602 124.461 71.527 124.129 72.191 123.455C72.8551 122.781 73.1871 121.805 73.1871 120.535H73.148C72.3082 121.697 71.0289 122.283 69.3297 122.283C67.7281 122.283 66.3414 121.707 65.1695 120.555C63.9977 119.402 63.4117 118.025 63.4117 116.424ZM65.4918 116.463C65.4918 117.518 65.8629 118.436 66.6051 119.217C67.3473 119.998 68.2555 120.379 69.3102 120.379C70.1109 120.379 70.8141 120.174 71.4293 119.754C72.0348 119.334 72.5035 118.758 72.8258 118.016C73.0602 117.508 73.1871 116.99 73.1871 116.482C73.1871 114.666 72.3863 113.445 70.7945 112.82C70.2867 112.625 69.7984 112.518 69.3297 112.518C68.2555 112.518 67.3473 112.908 66.6051 113.68C65.8629 114.461 65.4918 115.389 65.4918 116.463ZM77.2445 116.424C77.2445 115.574 77.4398 114.744 77.8402 113.943C78.348 112.889 79.0707 112.078 80.0082 111.492C80.9457 110.916 82.0102 110.623 83.2016 110.623C83.9047 110.623 84.6078 110.76 85.3109 111.033C86.0141 111.307 86.5805 111.697 87.0199 112.195V110.916H89.1V120.496C89.1 122.352 88.5629 123.797 87.4887 124.822C86.4145 125.848 84.9594 126.355 83.1039 126.355C81.8734 126.355 80.7797 126.053 79.8129 125.438C78.8461 124.832 78.1234 123.973 77.6449 122.859H79.9594C80.7016 123.934 81.7562 124.461 83.1234 124.461C84.393 124.461 85.3598 124.129 86.0238 123.455C86.6879 122.781 87.0199 121.805 87.0199 120.535H86.9809C86.141 121.697 84.8617 122.283 83.1625 122.283C81.5609 122.283 80.1742 121.707 79.0023 120.555C77.8305 119.402 77.2445 118.025 77.2445 116.424ZM79.3246 116.463C79.3246 117.518 79.6957 118.436 80.4379 119.217C81.1801 119.998 82.0883 120.379 83.143 120.379C83.9437 120.379 84.6469 120.174 85.2621 119.754C85.8676 119.334 86.3363 118.758 86.6586 118.016C86.893 117.508 87.0199 116.99 87.0199 116.482C87.0199 114.666 86.2191 113.445 84.6273 112.82C84.1195 112.625 83.6312 112.518 83.1625 112.518C82.0883 112.518 81.1801 112.908 80.4379 113.68C79.6957 114.461 79.3246 115.389 79.3246 116.463ZM91.0969 116.443C91.0969 114.832 91.6438 113.455 92.7375 112.322C93.8313 111.189 95.1789 110.623 96.7805 110.623C98.343 110.623 99.6711 111.189 100.765 112.303C101.859 113.416 102.415 114.754 102.415 116.316C102.415 116.668 102.396 117.01 102.357 117.361H93.177C93.3918 118.24 93.8215 118.963 94.4855 119.529C95.1398 120.096 95.9211 120.379 96.8195 120.379C97.4641 120.379 98.0793 120.213 98.6652 119.881C99.2414 119.549 99.6809 119.1 99.9738 118.523H102.054C101.624 119.656 100.931 120.574 99.9738 121.258C99.0168 121.941 97.9328 122.283 96.7316 122.283C95.1691 122.283 93.8313 121.707 92.7375 120.545C91.6438 119.383 91.0969 118.016 91.0969 116.443ZM93.177 115.76H100.335C100.277 114.861 99.8957 114.09 99.1828 113.465C98.4699 112.84 97.6594 112.518 96.7512 112.518C95.843 112.518 95.0324 112.84 94.3195 113.465C93.6066 114.09 93.2258 114.861 93.177 115.76ZM104.686 122V110.916H106.629V111.922H106.668C107.254 111.102 108.191 110.662 109.49 110.623V112.762C108.963 112.762 108.465 112.898 107.986 113.162C107.166 113.572 106.766 114.5 106.766 115.936V122H104.686ZM110.227 122V119.559H112.307V122H110.227Z" fill="#14191F"/>
</svg>
