<svg width="64" height="64" viewBox="0 0 64 64" fill="none" xmlns="http://www.w3.org/2000/svg">
<path d="M9.34661 53.1599C12.4249 56.8028 16.364 59.8551 21.1036 60.894C30.737 63.0054 40.2575 56.9679 45.5902 49.2986C48.7345 44.7768 51.256 39.2776 51.5735 33.7154C51.8624 28.6554 50.3917 23.7385 47.0694 19.8661C46.7491 19.4929 46.4092 19.1411 46.0679 18.7906C46.5882 18.3578 47.1061 17.9219 47.6286 17.4916C47.9842 17.1988 48.3439 16.911 48.7027 16.622C50.3354 16.5739 51.9037 16.4414 53.5205 16.0873C54.24 15.9296 54.9397 15.7314 55.6326 15.4795C55.9826 15.3523 56.3351 15.2178 56.6559 15.0258C56.977 14.8336 57.201 14.4931 57.4744 14.2439C57.6432 14.0899 57.7821 13.9485 57.9135 13.7581C58.1411 13.4283 58.0804 12.8474 57.5875 12.7896C57.2444 12.7493 56.9197 12.8109 56.5745 12.8009C56.2884 12.7928 56.0874 12.7141 55.7894 12.7629C55.6019 12.7935 55.4195 12.8479 55.2384 12.9039C54.2442 13.2114 53.2497 13.5309 52.238 13.776C52.5397 13.5114 52.8094 13.2356 52.984 12.9504C53.0382 12.8343 53.0739 12.7573 53.1005 12.6986C53.2291 12.5601 53.3627 12.4265 53.4964 12.2928C54.8549 12.2251 56.1772 12.1185 57.5164 11.8335C58.4977 11.6246 59.4721 11.3795 60.408 11.0151C60.7336 10.8883 61.0745 10.7618 61.3749 10.5818C61.9454 10.2399 62.4912 9.62114 62.8517 9.06639C63.0496 8.76189 62.7957 8.25976 62.4401 8.22426C61.6441 8.14464 60.82 8.14276 60.0564 8.40301C59.7091 8.52139 59.3627 8.63926 59.0135 8.75151C58.3976 8.94939 57.7895 9.16089 57.1649 9.33089C56.3439 9.55439 55.4864 9.75764 54.6277 9.91314C54.9655 7.76539 55.0741 5.61814 54.8904 3.42264C54.8027 2.37489 53.2897 2.46739 53.272 3.50376C53.2334 5.77126 52.9069 8.09189 52.3694 10.3064C51.7275 10.6006 51.041 10.9076 50.4832 11.3045C50.361 11.3915 50.2401 11.4809 50.1182 11.5684C50.225 10.3169 50.2497 9.05664 50.1799 7.77464C50.1221 6.71576 48.6032 6.83114 48.5615 7.85576C48.4875 9.67564 48.2185 11.5276 47.8082 13.3261C46.932 14.0261 46.063 14.736 45.1984 15.4499C44.7869 15.7895 44.3849 16.1404 43.9767 16.484C42.2074 14.3969 39.747 12.8358 37.35 11.5781C35.2095 10.455 32.9361 9.57039 30.5659 9.07764C26.1056 8.15039 21.4391 8.59901 17.2811 10.4841C12.825 12.5044 9.16074 15.9559 6.38899 19.9456C2.98774 24.8414 0.407738 30.7571 1.23449 36.8315C1.66786 40.0155 2.99024 43.0169 4.49449 45.8273C5.87561 48.4079 7.45449 50.9206 9.34661 53.1599ZM4.10211 31.9756C4.54299 29.1825 5.70624 26.4985 7.11736 24.0645C9.34561 20.2213 12.2561 16.7679 16.0122 14.3455C19.3467 12.1949 23.285 11.1428 27.2454 11.3528C31.4864 11.5776 35.543 13.2966 39.0247 15.6565C40.1231 16.401 41.166 17.2004 42.2632 17.9348C41.1746 18.8764 40.0957 19.8295 39.0291 20.7965C38.5257 21.2529 38.0284 21.7156 37.5274 22.1745C36.5649 21.1573 35.3115 20.383 34.1032 19.7174C32.7231 18.9569 31.2479 18.3406 29.7122 17.977C26.7412 17.2734 23.5946 17.4956 20.7839 18.7081C17.918 19.9443 15.5352 22.089 13.7076 24.5928C11.4761 27.6501 9.77312 31.3459 9.96974 35.1998C10.0666 37.0983 10.6936 38.9296 11.5137 40.6304C12.4395 42.5503 13.5334 44.4134 14.8502 46.0931C16.8205 48.6064 19.3916 50.7698 22.5206 51.6285C28.7 53.3245 35.0345 49.7131 38.682 44.8571C41.0082 41.76 42.8449 37.8496 43.0242 33.9365C43.1164 31.9264 42.7911 29.9626 42.0094 28.1055C41.4269 26.7216 40.513 25.5153 39.4611 24.4496C39.9976 23.9713 40.5259 23.484 41.0704 23.0144C42.2601 21.9876 43.4589 20.971 44.6626 19.9603C47.1556 22.9411 48.909 26.5155 49.2464 30.4416C49.6802 35.4898 47.9814 40.4703 45.5759 44.8436C43.2321 49.1049 39.9362 53.0184 35.7607 55.5788C32.4092 57.6339 28.4731 59.0498 24.5011 58.9118C20.4927 58.7724 16.8832 56.9869 13.9484 54.3131C12.0371 52.5719 10.4069 50.5123 9.03324 48.3256C7.47024 45.8378 6.05299 43.2048 5.05461 40.4366C4.06999 37.7061 3.64736 34.8563 4.10211 31.9756ZM31.8265 32.032C31.9255 32.2603 32.0241 32.4818 32.0907 32.7216C32.257 33.3203 32.2791 33.918 32.1866 34.533C32.0079 35.7215 31.4911 36.8521 30.7975 37.8286C29.6981 39.3764 27.807 40.7295 25.8402 40.4259C25.0424 40.3028 24.1947 39.7268 23.6089 39.0699C22.7074 38.0591 21.9235 36.6475 21.6635 35.3128C21.2541 33.211 22.8244 30.8579 24.5765 29.8044C25.4672 29.2688 26.5309 29.0694 27.5519 29.2705C28.091 29.3766 28.6212 29.5645 29.1045 29.8253C29.2035 29.8788 29.2989 29.9358 29.3929 29.9939C28.0969 31.3153 26.8381 32.671 25.6816 34.1215C24.8837 35.1221 26.4515 36.3205 27.3575 35.5304C28.8052 34.2678 30.2211 32.9696 31.6294 31.6631C31.7326 31.8524 31.815 32.0058 31.8265 32.032ZM32.6605 26.7544C32.2047 27.2006 31.749 27.6469 31.2939 28.0936C31.11 27.9626 30.9216 27.8378 30.732 27.7209C30.0649 27.3095 29.3364 26.9673 28.5829 26.7491C27.1786 26.3425 25.6682 26.3795 24.2887 26.8658C22.863 27.3684 21.6659 28.3629 20.7366 29.537C19.6835 30.8676 18.8135 32.5756 18.7462 34.2978C18.6667 36.3355 19.714 38.2248 20.9002 39.8118C21.8332 41.06 23.0936 42.1408 24.6027 42.605C27.5156 43.501 30.5335 41.9753 32.357 39.7115C33.4621 38.3396 34.3565 36.5323 34.5184 34.7634C34.6026 33.8428 34.515 32.8984 34.1989 32.027C33.9537 31.3513 33.576 30.7844 33.1155 30.2783C34.7597 28.7408 36.4064 27.2055 38.071 25.6895C39.6431 27.7185 40.6774 30.111 40.742 32.7266C40.8189 35.8364 39.614 38.9579 38.0244 41.5838C35.2525 46.1626 30.1887 50.2559 24.5209 49.5805C22.0401 49.2849 19.8747 47.8425 18.188 46.0629C17.066 44.8791 16.1409 43.5061 15.3381 42.0918C14.435 40.5004 13.5655 38.8216 13.1232 37.035C12.3077 33.7403 13.2476 30.6273 14.9754 27.7864C16.377 25.4819 18.1825 23.406 20.501 21.9889C22.7552 20.6111 25.455 20.0149 28.0756 20.4081C29.5282 20.626 30.9576 21.0818 32.2721 21.7366C33.4817 22.3391 34.556 23.1486 35.6805 23.8743C34.6639 24.8235 33.6547 25.781 32.6605 26.7544Z" fill="#F86624"/>
</svg>
