<svg width="116" height="36" viewBox="0 0 116 36" fill="none" xmlns="http://www.w3.org/2000/svg">
<path d="M24.5728 4.45007H21.0123V29.691H24.5728V4.45007Z" fill="black"/>
<path d="M35.3525 13.5229C32.2723 13.5229 29.4322 15.9456 29.2255 19.049H41.4774C41.2729 15.9456 38.4306 13.5229 35.3505 13.5229M44.9337 21.7777H29.2255C29.9439 24.7105 32.3392 26.9291 35.4548 26.9291C37.6789 26.9291 39.836 25.7345 40.8613 23.7571H44.4199C42.983 27.6118 39.4583 30.1698 35.3171 30.1698C29.9105 30.1698 25.6651 25.4971 25.6651 20.2103C25.6651 14.9236 29.8396 10.2842 35.384 10.2842C40.9284 10.2842 45.0359 14.6843 45.0359 20.0063C45.0359 20.587 45.0004 21.201 44.9337 21.7797" fill="black"/>
<path d="M59.4274 29.6911V19.4237C59.4274 16.2164 58.4688 13.523 54.7038 13.523C51.2123 13.523 49.7067 16.2183 49.7067 19.3904V29.6911H46.1481V10.7942H49.4683V12.8069H49.5374C50.9052 10.9982 52.8912 10.2822 55.0815 10.2822C57.7857 10.2822 60.317 11.3396 61.789 13.6583C62.7121 15.0903 62.9876 16.8304 62.9876 18.5017V29.6895H59.4294L59.4274 29.6911Z" fill="black"/>
<path d="M65.9932 4.45007V10.7942H62.8875V14.0349H65.9932V29.691H69.5538V14.0349H72.6672V10.7942H69.5538V4.45007H65.9932Z" fill="black"/>
<path d="M77.2196 10.7943H73.6614V29.6911H77.2196V10.7943Z" fill="black"/>
<path d="M83.4625 14.0349V29.691H79.9044V14.0349H78.2275V10.7942H79.9044V9.87415C79.9044 7.99878 80.554 6.4981 82.1638 5.47411C83.7716 4.45007 84.937 4.45007 86.7832 4.45007V7.6908C85.3107 7.6908 83.4625 8.03216 83.4625 9.87415V10.7942H86.7832V14.0349H83.4625Z" fill="black"/>
<path d="M101.444 29.6911V27.6452H101.375C100.281 29.4873 97.8169 30.1698 95.7974 30.1698C93.778 30.1698 91.8967 29.5892 90.3907 28.2945C88.3025 26.4858 87.8933 23.6217 87.8933 21.0284V10.7943H91.4515V21.0284C91.4515 24.3711 92.4436 26.9291 96.1751 26.9291C99.907 26.9291 101.137 24.2005 101.137 20.9264V10.7962H104.696V29.6931H101.444V29.6911Z" fill="black"/>
<path d="M109.502 4.45007H105.943V29.691H109.502V4.45007Z" fill="black"/>
<path d="M9.82123 13.523C6.15842 13.523 3.48959 16.6616 3.48959 20.2084C3.48959 23.7552 6.15842 26.9272 9.92356 26.9272C13.6887 26.9272 16.3241 23.8905 16.3241 20.2751C16.3241 16.6597 13.484 13.521 9.82123 13.521M10.3015 30.1678C7.76841 30.1678 4.99721 29.2126 3.62734 26.9605H3.55846V36H0V10.7942H3.25145V13.6936H3.32032C4.89488 11.4416 7.35903 10.2822 10.0614 10.2822C15.9128 10.2822 19.8826 14.7843 19.8826 20.4811C19.8826 25.8365 15.7415 30.1678 10.2995 30.1678" fill="black"/>
<path d="M77.2196 4.45007H73.6614V8.61083H77.2196V4.45007Z" fill="black"/>
<path d="M113.318 5.63695C112.946 5.63695 112.596 5.56444 112.272 5.42078C111.947 5.27712 111.662 5.076 111.418 4.81879C111.174 4.56154 110.983 4.26194 110.844 3.92123C110.706 3.57918 110.637 3.21113 110.637 2.81437C110.637 2.41761 110.706 2.04956 110.844 1.70888C110.983 1.36821 111.174 1.0713 111.418 0.814056C111.662 0.558219 111.947 0.35847 112.272 0.214808C112.596 0.0711467 112.946 0 113.318 0C113.69 0 114.036 0.0711467 114.361 0.214808C114.686 0.35847 114.971 0.55685 115.216 0.814056C115.462 1.06993 115.654 1.36821 115.793 1.70888C115.931 2.04956 116 2.41761 116 2.81437C116 3.21113 115.931 3.58055 115.793 3.92123C115.654 4.26194 115.462 4.56154 115.215 4.81879C114.968 5.076 114.682 5.27712 114.36 5.42078C114.034 5.56444 113.689 5.63695 113.318 5.63695ZM113.318 5.15809C113.625 5.15809 113.912 5.0979 114.18 4.97884C114.448 4.85982 114.681 4.69288 114.884 4.47945C115.087 4.26601 115.245 4.01701 115.361 3.7338C115.476 3.45058 115.532 3.14272 115.532 2.81163C115.532 2.48054 115.474 2.17268 115.361 1.89084C115.247 1.60899 115.087 1.36137 114.884 1.14929C114.681 0.937224 114.446 0.771659 114.18 0.654007C113.912 0.537685 113.625 0.478859 113.318 0.478859C113.01 0.478859 112.719 0.537685 112.45 0.655377C112.183 0.773028 111.947 0.938593 111.743 1.15066C111.54 1.36273 111.382 1.61036 111.27 1.89494C111.157 2.17953 111.099 2.48465 111.099 2.81437C111.099 3.14409 111.157 3.45332 111.271 3.73654C111.385 4.01975 111.544 4.26874 111.747 4.48218C111.951 4.69562 112.185 4.86256 112.454 4.98158C112.723 5.09927 113.01 5.15809 113.318 5.15809ZM112.199 4.36727V1.16705H113.264C113.642 1.16705 113.941 1.25462 114.162 1.4284C114.382 1.60351 114.493 1.84844 114.493 2.16447C114.493 2.30539 114.46 2.42719 114.394 2.52978C114.328 2.63242 114.229 2.72269 114.096 2.80068C114.229 2.88415 114.327 2.99362 114.389 3.13181C114.45 3.27 114.481 3.43142 114.481 3.61752V3.82822C114.481 3.93081 114.485 4.02386 114.494 4.10459C114.503 4.18669 114.52 4.25373 114.545 4.30571V4.3659H113.956C113.933 4.31392 113.919 4.23593 113.915 4.13467C113.909 4.03344 113.908 3.92944 113.908 3.82411V3.62025C113.908 3.44237 113.865 3.31103 113.782 3.22619C113.698 3.14272 113.561 3.10033 113.371 3.10033H112.774V4.3659L112.199 4.36727ZM112.774 2.58724H113.253C113.44 2.58998 113.598 2.55443 113.727 2.48054C113.857 2.40666 113.922 2.29992 113.922 2.1631C113.922 1.98252 113.872 1.85665 113.775 1.78414C113.676 1.71299 113.507 1.6774 113.266 1.6774H112.774V2.58724Z" fill="black"/>
</svg>
