<svg width="25" height="26" viewBox="0 0 25 26" fill="none" xmlns="http://www.w3.org/2000/svg">
<path d="M7.377 14.1717L9.65033 15.694L12.2607 14.3813L14.8487 15.7163L17.117 14.199L15.658 11.2393C15.6238 11.1709 15.5726 11.1153 15.5043 11.0727C15.4359 11.03 15.3632 11.0087 15.2863 11.0087H9.181C9.10411 11.0087 9.03367 11.03 8.96967 11.0727C8.90545 11.1153 8.85622 11.1709 8.822 11.2393L7.377 14.1717ZM2.7 23.658H21.793L17.8607 15.7203L14.9837 17.6393L12.2563 16.2853L9.529 17.617L6.612 15.687L2.7 23.658ZM0 25.3333L7.30933 10.4813C7.49045 10.1364 7.74889 9.85889 8.08467 9.64867C8.42045 9.43845 8.78589 9.33333 9.181 9.33333H11.4187V0H19.4563L18.3787 2.171L19.4563 4.342H13.094V9.33333H15.2247C15.6204 9.33333 15.9816 9.43733 16.308 9.64533C16.6344 9.85333 16.8884 10.1326 17.07 10.483L24.5127 25.3333H0Z" fill="#14191F"/>
</svg>
