<svg width="19" height="15" viewBox="0 0 19 15" fill="none" xmlns="http://www.w3.org/2000/svg">
<path d="M0 14.5833V12.0208C0 11.5656 0.102014 11.1576 0.306042 10.7971C0.510069 10.4364 0.79 10.1499 1.14583 9.9375C1.95139 9.45139 2.81785 9.07986 3.74521 8.82292C4.67257 8.56597 5.63944 8.4375 6.64583 8.4375C7.6475 8.4375 8.60972 8.56597 9.5325 8.82292C10.4553 9.07986 11.3194 9.45139 12.125 9.9375C12.481 10.1499 12.7609 10.4364 12.9648 10.7971C13.1688 11.1576 13.2708 11.5656 13.2708 12.0208V14.5833H0ZM14.875 14.5833V11.9375C14.875 11.3819 14.75 10.7882 14.5 10.1562C14.25 9.52431 13.8681 9.00694 13.3542 8.60417C14.0625 8.71528 14.7431 8.87847 15.3958 9.09375C16.0486 9.30903 16.6597 9.59028 17.2292 9.9375C17.6158 10.1704 17.9174 10.4694 18.1338 10.8346C18.3501 11.1997 18.4583 11.5674 18.4583 11.9375V14.5833H14.875ZM4.08333 6.125C3.38889 5.43056 3.04167 4.58333 3.04167 3.58333C3.04167 2.58333 3.38889 1.73611 4.08333 1.04167C4.77778 0.347222 5.625 0 6.625 0C7.625 0 8.47222 0.347222 9.16667 1.04167C9.86111 1.73611 10.2083 2.58333 10.2083 3.58333C10.2083 4.58333 9.86111 5.43056 9.16667 6.125C8.47222 6.81944 7.625 7.16667 6.625 7.16667C5.625 7.16667 4.77778 6.81944 4.08333 6.125ZM14.3496 6.125C13.6519 6.81944 12.8062 7.16667 11.8125 7.16667C11.6458 7.16667 11.4514 7.15625 11.2292 7.13542C11.0069 7.11458 10.8125 7.07639 10.6458 7.02083C11.0208 6.53472 11.309 6.00451 11.5104 5.43021C11.7118 4.8559 11.8125 4.24028 11.8125 3.58333C11.8125 2.92639 11.7118 2.31076 11.5104 1.73646C11.309 1.16215 11.0208 0.631944 10.6458 0.145833C10.8403 0.0902778 11.0347 0.0520833 11.2292 0.03125C11.4236 0.0104167 11.6181 0 11.8125 0C12.8062 0 13.6519 0.347222 14.3496 1.04167C15.0471 1.73611 15.3958 2.58333 15.3958 3.58333C15.3958 4.58333 15.0471 5.43056 14.3496 6.125ZM2.04167 12.5417H11.2292V12.0208C11.2292 11.931 11.222 11.8632 11.2077 11.8175C11.1935 11.7717 11.1729 11.7422 11.1458 11.7292C10.4792 11.3542 9.75 11.0521 8.95833 10.8229C8.16667 10.5938 7.39236 10.4792 6.63542 10.4792C5.87847 10.4792 5.10417 10.5903 4.3125 10.8125C3.52083 11.0347 2.79167 11.3403 2.125 11.7292C2.09792 11.7407 2.07722 11.7678 2.06292 11.8106C2.04875 11.8535 2.04167 11.923 2.04167 12.019V12.5417ZM7.71875 4.67C8.01736 4.36681 8.16667 4.00222 8.16667 3.57625C8.16667 3.15042 8.015 2.78819 7.71167 2.48958C7.40847 2.19097 7.04389 2.04167 6.61792 2.04167C6.19208 2.04167 5.82986 2.19333 5.53125 2.49667C5.23264 2.79986 5.08333 3.16445 5.08333 3.59042C5.08333 4.01625 5.235 4.37847 5.53833 4.67708C5.84153 4.97569 6.20611 5.125 6.63208 5.125C7.05792 5.125 7.42014 4.97333 7.71875 4.67Z" fill="#14191F" fill-opacity="0.64"/>
</svg>
