<svg width="64" height="64" viewBox="0 0 64 64" fill="none" xmlns="http://www.w3.org/2000/svg">
<path d="M37.1087 49.3225C37.7737 49.2562 37.995 48.6362 38.28 48.1175C38.4925 47.7262 38.7787 47.1687 38.9825 46.7637C39.3325 46.0475 39.6812 45.31 39.9937 44.5625L40.63 44.5562H40.6625C41.4875 44.5487 42.15 43.8725 42.14 43.0462C42.13 42.2337 42.1187 41.42 42.1075 40.6075L42.7537 40.6025C42.88 41.815 43.0837 43.7037 43.2025 44.8025C43.2512 45.1625 43.2737 45.7237 43.3887 46.0637C43.67 46.9675 44.5825 47.605 45.5262 47.5612L45.6075 47.56L45.77 47.5562C46.015 47.5475 47.1062 47.5262 47.39 47.515C47.9162 47.525 48.4575 47.3387 48.85 46.9837C49.3137 46.5862 49.5787 45.945 49.5537 45.3462L49.5512 45.265L49.5475 45.1025C49.5412 44.9025 49.5287 44.335 49.52 44.13C49.4737 42.2662 49.355 39.52 49.295 37.65L49.2387 36.3312C49.195 35.4375 48.7912 34.5837 48.135 33.985C46.1212 32.1537 43.9775 30.2337 41.885 28.4225C41.8087 24.9937 41.7225 21.565 41.63 18.1412C41.6187 17.69 41.585 16.495 41.5737 16.0612C41.34 9.82246 37.7687 4.49246 32.2037 1.75121C32.0962 1.68871 31.9512 1.67121 31.8325 1.72871L31.7275 1.78371L31.5725 1.86371C25.8412 4.54371 22.2275 10.375 22.25 16.7025C22.0625 23.6637 21.945 30.6437 21.8787 37.6137C21.625 37.6175 21.3737 37.6225 21.1262 37.6262C20.9662 37.63 20.775 37.6275 20.6187 37.6525C19.4525 37.7912 18.4812 38.7887 18.3787 39.9587C18.3562 40.2287 18.32 40.7625 18.3012 41.0387C18.2425 41.8812 18.0887 44.1062 18.04 44.9187V44.92C17.6562 44.9312 17.2362 44.945 16.9075 44.955C16.815 42.195 16.7012 39.3937 16.565 36.64L16.5512 36.3475C16.5337 35.935 16.6725 35.5212 16.935 35.1925L16.9712 35.1475L17.0225 35.0887L17.2387 34.8462C17.5187 34.5325 19.0775 32.7662 19.3912 32.4162C19.9575 31.76 20.5312 31.1125 21.09 30.45C21.1837 30.3387 21.1862 30.1737 21.09 30.06C20.9825 29.9325 20.7912 29.9162 20.6637 30.0237C20.0012 30.5825 19.3525 31.1562 18.6962 31.7225C18.3525 32.0187 16.5662 33.6175 16.265 33.8737L16.0225 34.09C15.395 34.6412 14.9937 35.445 14.93 36.2862C14.915 36.5125 14.8925 37.06 14.88 37.29C14.7537 39.8625 14.6525 42.4925 14.5637 45.0662L14.5537 45.39C14.5525 45.395 14.5537 45.4412 14.555 45.4712C14.5587 46.5375 15.5087 47.4375 16.5712 47.4137C17.165 47.4325 17.9225 47.4562 18.515 47.4712C19.3712 47.4937 20.1925 46.9425 20.4937 46.1362C20.615 45.8387 20.6362 45.4725 20.6737 45.1562L20.8225 43.8687C20.8937 43.2362 21.0962 41.3912 21.19 40.5525C21.4087 40.5562 21.63 40.5587 21.85 40.5625C21.8437 41.3912 21.8375 42.22 21.8325 43.0475C21.8275 43.89 22.5062 44.5762 23.35 44.5825H23.3675C23.3675 44.5825 23.6537 44.5837 24.0187 44.5862C24.03 44.6137 24.0412 44.6425 24.0537 44.67C24.6462 46.0675 25.3475 47.46 26.085 48.785C26.2487 49.07 26.5437 49.2812 26.895 49.3225L27.1612 49.3537C27.3137 49.3712 27.465 49.3862 27.6175 49.4025C27.5312 49.7675 27.455 50.1337 27.3825 50.5087C26.9625 53.0537 28.195 55.7112 30.2987 57.1837C30.4962 57.3262 30.9087 57.6137 31.115 57.755C31.6287 58.11 32.3325 58.1325 32.8762 57.7562C33.045 57.6387 33.4712 57.3475 33.6312 57.2287C35.1637 56.1675 36.2812 54.4912 36.59 52.6587C36.8012 51.5612 36.6512 50.47 36.3837 49.4025C36.6275 49.375 36.8687 49.35 37.1087 49.3225ZM42.1125 29.9262C43.4437 31.4462 45.0925 33.2775 46.4362 34.7662L46.8725 35.2462C46.8937 35.2687 46.9025 35.2812 46.9137 35.295C47.1625 35.5925 47.3012 35.9962 47.2812 36.3775C47.1712 38.9875 47.0587 42.1662 46.9812 44.8525L46.0912 44.83C46.0912 44.83 46.045 44.8287 46.035 44.8287C46.025 44.6825 46.015 44.55 46.015 44.55C45.9525 43.6975 45.7987 41.4975 45.7312 40.6712L45.6825 40.025L45.675 39.9562C45.585 38.9925 44.9212 38.1212 44.0212 37.7675C43.7887 37.675 43.5437 37.6162 43.2962 37.5912C42.9862 37.5712 42.9562 37.5812 42.8325 37.5762C42.8325 37.5762 42.4187 37.5725 42.0587 37.57C42.0162 34.9462 41.9662 32.32 41.91 29.695C41.9787 29.7712 42.0462 29.8475 42.1125 29.9262ZM39.1387 41.52C38.7075 41.5162 38.27 41.5125 37.8262 41.5087L39.1562 40.1787C39.1512 40.6262 39.145 41.0737 39.1387 41.52ZM39.17 39.2825L36.9487 41.5037C36.1262 41.4987 35.29 41.495 34.4487 41.4925L39.21 36.7312C39.195 37.5812 39.1825 38.4325 39.17 39.2825ZM39.225 35.8325L33.5675 41.49C33.1487 41.4887 32.7312 41.4887 32.3125 41.4875V40.2325L39.2725 33.2725C39.2562 34.1262 39.24 34.98 39.225 35.8325ZM32 12.6412C32.0012 12.6412 32.0025 12.64 32.0037 12.64C33.0287 12.9 33.9262 13.4637 34.5175 14.2925L32.7162 15.8125C32.0625 16.3637 31.6875 17.1712 31.6875 18.0275V19.7325C31.0312 19.6687 30.3925 19.4062 29.885 18.9412C28.5937 17.8025 28.4187 15.7487 29.4775 14.3037C30.0687 13.47 30.9712 12.9012 32 12.6412ZM34.1162 18.9425C33.6087 19.4062 32.97 19.6687 32.3125 19.7325V18.0275C32.3125 17.3562 32.6062 16.7237 33.12 16.29L34.8462 14.8325C35.5275 16.2175 35.2575 17.9362 34.1162 18.9425ZM39.2987 31.9775C39.2962 32.1087 39.2937 32.24 39.2912 32.3712L32.3125 39.35V36.8387L39.345 29.8062C39.33 30.5312 39.3137 31.2562 39.2987 31.9775ZM39.365 28.9025L32.3125 35.955V33.4437L39.4225 26.3337C39.4025 27.1912 39.3837 28.0475 39.365 28.9025ZM39.4437 25.4287L32.3125 32.56V30.05L39.505 22.8575C39.485 23.7137 39.4637 24.5712 39.4437 25.4287ZM39.5287 21.95L32.3125 29.1662V26.655L39.595 19.3725C39.5725 20.23 39.55 21.09 39.5287 21.95ZM39.665 16.7587C39.6487 17.3262 39.6337 17.895 39.6187 18.465L32.3125 25.7712V23.26L32.7537 22.8187C34.7812 22.5525 36.6612 21.2487 37.4512 19.0862C37.605 18.6775 37.705 18.2512 37.7525 17.82L39.6975 15.875C39.6962 16.1687 39.685 16.4637 39.665 16.7587ZM39.6825 15.0062L37.78 16.9087C37.7425 16.2112 37.575 15.5225 37.2875 14.89L39.4112 12.7662C39.555 13.505 39.6462 14.2537 39.6825 15.0062ZM37.6312 8.00246C38.3587 9.26496 38.9037 10.63 39.2512 12.0437L36.9812 14.3137C36.81 14.035 36.6137 13.7712 36.3912 13.53L36.6025 13.3512C37.2562 12.7987 37.6312 11.9925 37.6312 11.1362V8.00246ZM24.895 41.5012C24.8387 33.2412 24.7137 24.9587 24.4925 16.7012C24.1475 10.8275 26.9812 5.58496 31.9087 2.41996C31.9237 2.40871 31.9662 2.37871 32.01 2.34871C33.1012 3.06246 34.1912 3.82246 35.1112 4.75246C35.82 5.44121 36.4525 6.19871 37.0062 7.00746V11.135C37.0062 11.8062 36.7125 12.4387 36.1987 12.8725L35.9362 13.0937C35.8987 13.0625 35.8625 13.0312 35.8237 13.0012C34.7162 12.1087 33.2587 11.7525 32.0037 12.0337C32.0025 12.0337 32.0012 12.0325 32 12.0325C29.8037 11.5187 27.3725 13.0212 26.5787 15.1812C25.8025 17.1612 26.2875 19.5275 27.7662 21.0587C28.8575 22.2112 30.2687 22.7912 31.6875 22.8612V41.4875C29.5512 41.4862 27.4475 41.4912 25.5287 41.4975L24.895 41.5012ZM26.2237 45.0212C26.0875 44.8787 25.9512 44.7375 25.8137 44.5962C27.5237 44.6062 29.6325 44.605 31.6862 44.6012V46.4837C30.3612 46.4937 29.0362 46.5612 27.715 46.6875C27.2312 46.1212 26.7187 45.5487 26.2237 45.0212ZM34.5525 51.2575C34.0975 52.5737 33.2325 53.745 32.0925 54.5187C32.0637 54.5387 32.0325 54.56 32 54.5825C30.3862 53.5175 29.4062 51.795 29.0987 49.8862C29.0712 49.7612 29.0425 49.6375 29.0137 49.5137C29.2037 49.5262 29.3937 49.5375 29.5837 49.5475C30.285 49.5825 30.9875 49.6012 31.6887 49.6075V50.05C31.6887 50.7537 31.945 51.4337 32.4087 51.9625C32.47 52.0325 32.5575 52.0687 32.6437 52.0687C32.7175 52.0687 32.79 52.0437 32.85 51.9912C32.98 51.8775 32.9925 51.68 32.8787 51.55C32.5137 51.135 32.3137 50.6025 32.3137 50.05V49.6087C33.2075 49.6037 34.1 49.5725 34.9912 49.5137C34.86 50.1 34.7412 50.6875 34.5525 51.2575ZM32.3125 46.4837V44.6C33.75 44.5975 35.1362 44.5937 36.315 44.5937L38.1987 44.5775C37.7362 45.0537 37.1625 45.675 36.7462 46.1512C36.5912 46.3287 36.4362 46.5062 36.2837 46.685C34.9625 46.5587 33.6375 46.4925 32.3125 46.4837Z" fill="#DF9602"/>
<path d="M62 56.7813C61.7125 56.7375 61.425 56.7 61.1375 56.6638C60.2763 56.5488 59.4125 56.455 58.5488 56.3675C57.8163 56.2938 57.085 56.23 56.3525 56.1688C56.8238 54.15 57.2675 52.125 57.6825 50.095C57.8425 49.2975 58.0112 48.5 58.1625 47.7013C58.2475 47.2313 58.1013 46.7188 57.7263 46.3688C57.1238 45.8038 56.1687 45.8613 55.6312 46.4838C54.9687 47.1938 54.3012 47.9 53.6475 48.6175C52.3325 50.0463 51.0275 51.4863 49.74 52.94C49.5213 53.1888 49.3 53.4375 49.08 53.6863C48.455 52.8238 47.8275 51.9638 47.1925 51.1088C46.6988 50.335 45.54 50.2513 44.955 50.9675C42.9988 53.2688 41.0425 55.6375 39.175 58.0138C39.1562 58.0375 39.1375 58.0613 39.1187 58.085C38.5337 57.17 37.9325 56.265 37.2962 55.3838C37.0937 55.1125 36.6625 55.32 36.75 55.6513C37.075 56.7663 37.4462 57.865 37.835 58.9575C37.9612 59.3225 38.0975 59.6813 38.23 60.0438C38.2675 60.1463 38.3275 60.2475 38.4075 60.3313C38.7237 60.6675 39.2537 60.6838 39.59 60.3675L39.7125 60.2525C40.3425 59.6538 40.9675 59.05 41.5875 58.4413C42.795 57.2625 44.0925 55.9588 45.2687 54.7563C45.4487 54.5738 45.6275 54.3888 45.8063 54.2038C46.4338 55.1488 47.0637 56.0913 47.7012 57.0288C48.23 57.8325 49.4262 57.93 50.0725 57.2125C51.61 55.5325 53.1262 53.8338 54.6275 52.12C54.4162 53.8175 54.2275 55.5175 54.08 57.22C54.1188 57.7425 54.575 58.135 55.0975 58.0963C56.825 57.9663 58.5538 57.8113 60.275 57.6088C60.8513 57.54 61.4263 57.4663 62.0013 57.3825C62.13 57.3625 62.2362 57.2625 62.2562 57.1275C62.2812 56.9625 62.1663 56.8063 62 56.7813Z" fill="#DF9602"/>
<path d="M26.705 55.385C26.0687 56.2663 25.4687 57.1713 24.8825 58.0863C24.8637 58.0625 24.845 58.0388 24.8262 58.015C22.9587 55.6388 21.0025 53.2688 19.0462 50.9688C18.4862 50.2875 17.3875 50.3163 16.8675 51.0313C16.3337 51.745 15.8125 52.4675 15.2837 53.185C15.1612 53.3513 15.0412 53.5188 14.92 53.6863C14.7 53.4388 14.48 53.19 14.2612 52.9413C12.9737 51.4863 11.6687 50.0475 10.3537 48.6188C9.69999 47.9 9.03249 47.195 8.36999 46.485C8.03874 46.105 7.52624 45.9038 6.99624 46.0038C6.20749 46.1525 5.68874 46.9125 5.83749 47.7013C5.98874 48.5013 6.15749 49.2975 6.31749 50.095C6.73249 52.125 7.17624 54.15 7.64749 56.1675C5.76124 56.3238 3.87499 56.5125 1.99999 56.7813C1.65124 56.8375 1.66624 57.3313 1.99999 57.385C4.34374 57.7088 6.70624 57.9588 9.06624 58.0975C9.65749 58.04 10.0187 57.4838 9.90624 56.9138C9.74624 55.3138 9.56749 53.7163 9.37249 52.1213C10.8612 53.8225 12.3675 55.5075 13.8937 57.175C14.5275 57.9263 15.7637 57.8575 16.3025 57.03C16.94 56.0925 17.57 55.15 18.1962 54.205C19.5837 55.6325 21.0012 57.06 22.415 58.4413C23.035 59.05 23.6612 59.6525 24.29 60.2525C24.405 60.3663 24.54 60.4938 24.7 60.545C25.1337 60.7025 25.6137 60.4788 25.7712 60.0438C25.9025 59.6813 26.0387 59.3225 26.1662 58.9575C26.555 57.865 26.9262 56.7663 27.2512 55.6513C27.345 55.325 26.9012 55.1125 26.705 55.385Z" fill="#DF9602"/>
</svg>
