<svg width="64" height="64" viewBox="0 0 64 64" fill="none" xmlns="http://www.w3.org/2000/svg">
<g clip-path="url(#clip0_1216_447)">
<path d="M19.7707 0.0246274C20.748 0.0157692 21.7254 -0.00785288 22.7037 0.00198964C28.1378 0.062029 33.5728 0.116163 39.0069 0.197856C41.688 0.23821 44.3681 0.377974 47.0492 0.390769C49.2244 0.400612 49.8858 0.753958 50.7628 2.73132C51.0266 3.32482 51.2283 3.94687 51.4941 4.54037C52.4921 6.76774 53.8927 8.45671 56.3986 9.25199C60.996 10.7126 60.3169 10.8248 59.7519 14.5443C58.5994 22.1231 57.2608 29.6516 53.7392 36.6142C51.4439 41.1506 48.5994 45.311 45.5147 49.3071C42.8317 52.7805 39.9695 56.1201 37.1014 59.4459C35.9921 60.7333 34.7136 61.8986 33.3957 62.9774C31.4793 64.5453 30.0059 64.2717 28.3533 62.4282C27.2264 61.1713 25.8435 60.1418 24.7205 58.8809C21.8622 55.6723 18.8622 52.5542 16.3238 49.1034C11.8573 43.0325 8.4675 36.3288 6.28345 29.1053C4.77361 24.1103 3.80806 18.9794 3.84644 13.7038C3.86022 11.7766 4.43404 10.4449 6.40353 9.78939C7.20077 9.52463 7.95077 8.88683 8.5305 8.24608C10.2805 6.31105 11.9124 4.27463 12.7972 1.75888C13.186 0.653564 13.8376 0.00494239 15.1437 0.07384C16.6811 0.156517 18.2273 0.0708873 19.7707 0.0571077C19.7707 0.0472652 19.7707 0.0354542 19.7707 0.0246274ZM31.7234 61.816C34.5029 59.0482 37.309 56.561 39.7401 53.75C42.2874 50.8042 44.5295 47.5876 46.8061 44.4193C51.0895 38.4557 53.7677 31.7284 55.6653 24.7067C56.5325 21.5 56.8661 18.1496 57.4616 14.8671C57.8917 12.4961 57.8189 12.1664 55.5561 11.4508C52.2234 10.3986 50.2834 8.0699 49.1043 4.9449C48.1722 2.47345 47.3996 1.97345 44.8238 2.03545C42.7962 2.08467 40.7638 2.07876 38.7362 2.01577C36.7834 1.95671 34.8307 1.67325 32.8809 1.70081C28.3287 1.76577 23.7756 2.11124 19.2273 2.04038C16.5029 1.99707 14.7569 2.73034 13.3848 5.27266C12.2195 7.43211 10.5443 9.60337 8.54329 10.9518C6.24014 12.504 5.57872 14.2628 5.95569 16.7008C6.85038 22.4931 7.93994 28.2057 10.1909 33.7008C13.8277 42.5778 18.752 50.5049 25.9271 56.94C27.7244 58.5502 29.6191 60.0512 31.7234 61.816Z" fill="#0B6E4F"/>
<path d="M55.5777 17.1368C54.809 24.374 52.6279 31.1526 48.8327 37.3652C46.0334 41.9468 43.2234 46.5384 40.124 50.9163C38.1643 53.6841 35.7687 56.1722 33.3691 58.5876C31.5649 60.4045 30.5226 60.2461 28.8907 58.313C25.4222 54.2067 21.8484 50.1752 18.6102 45.8917C15.4547 41.7185 13.0157 37.1112 11.6466 31.9793C10.7677 28.6801 9.60135 25.4596 8.66041 22.1762C8.14663 20.3819 7.83758 18.5285 7.42911 16.7037C6.95962 14.6043 7.32872 14.3691 8.88777 12.8494C11.0305 10.7608 13.0374 8.46456 14.7244 5.99803C16.1388 3.9311 16.3622 3.55118 18.9016 3.70177C23.7805 3.99114 28.6604 4.31201 33.5453 4.4439C37.2943 4.54626 41.0521 4.42224 44.8041 4.30708C46.2106 4.26476 47.1486 4.67815 47.6466 6.04626C48.5827 8.61712 50.3445 10.5945 52.809 11.6063C55.5305 12.7234 55.751 14.7382 55.5777 17.1368ZM28.2785 54.3484C29.0393 55.311 29.5216 56.0561 30.1378 56.6654C31.0748 57.5896 31.996 57.6624 32.9143 56.6476C35.2647 54.0492 37.7332 51.5069 39.7086 48.6358C42.2893 44.8858 44.3445 40.7795 46.8031 36.94C50.3966 31.3278 52.0265 25.06 53.2667 18.6398C53.4055 17.9252 53.3641 17.1781 53.4104 16.4459C53.4951 15.0886 52.9744 14.0787 51.7451 13.44C50.0344 12.5522 48.7706 11.2018 47.7352 9.59252C47.0787 8.57185 46.3248 7.6122 45.559 6.54823C36.2037 6.31201 26.7874 6.07382 17.371 5.84449C17.3228 5.8435 17.2559 5.95866 17.2273 6.03149C17.1978 6.10433 17.2047 6.19193 17.1634 6.54134C17.8651 6.78937 18.6338 7.06201 19.433 7.34449C18.1683 8.17716 15.7628 6.71063 15.4577 9.5059C16.1575 9.54527 16.8041 9.52854 17.4311 9.63189C18.0708 9.7372 18.6909 9.96063 19.7943 10.2618C13.9527 10.8071 13.9527 10.8071 13.124 12.1693C14.6811 12.2844 16.1584 12.3927 17.6348 12.503C15.0679 13.5492 12.0679 12.497 9.38974 15.0256C12.5561 15 15.2027 14.9774 17.8484 14.9557C15.2913 16.2785 12.3454 15.3435 9.78738 16.7539C10.1397 18.2342 11.2953 17.8681 12.1565 17.8799C14.7815 17.9173 17.4075 17.8573 20.0334 17.8356C20.0344 17.9144 20.0344 17.9931 20.0344 18.0718C16.8307 18.3947 13.6269 18.7185 10.4517 19.0394C10.3021 20.4852 10.8838 20.748 11.8858 20.6496C13.2962 20.5108 14.7126 20.44 16.1269 20.3396C16.1614 20.5246 16.1949 20.7077 16.2293 20.8927C14.4744 21.2402 12.7195 21.5866 10.9665 21.9331C11.3917 24.065 11.3917 24.0246 13.0423 24.0177C14.6565 24.0118 16.2706 24.1004 17.8848 24.1476C17.8779 24.252 17.871 24.3563 17.8641 24.4606C15.8888 24.7776 13.9134 25.0965 11.7569 25.4419C12.0216 26.1841 12.2008 26.686 12.434 27.3386C13.8789 27.3268 15.2697 27.315 16.6614 27.3031C16.6722 27.4242 16.683 27.5443 16.6939 27.6644C15.4222 27.9833 14.1496 28.3022 12.8888 28.6181C13.5472 31.6772 13.6151 31.7283 16.3878 31.9232C16.9872 31.9655 17.5817 32.0896 18.1791 32.1762C18.184 32.2785 18.189 32.3809 18.1949 32.4823C16.9517 32.7461 15.7096 33.0098 14.2569 33.3179C14.5472 33.9852 14.8189 34.6112 15.0895 35.2333C16.6506 35.2205 18.0256 35.2096 19.4006 35.1978C19.4084 35.3209 19.4173 35.4439 19.4252 35.5679C18.2244 35.8425 17.0236 36.1191 15.6082 36.4439C15.996 37.314 16.2775 37.9449 16.498 38.4419C19.0078 38.6053 21.2962 38.7539 23.5856 38.9045C23.5807 39.0394 23.5758 39.1742 23.5708 39.3091C21.5039 39.4291 19.438 39.5492 17.3071 39.6732C18.2923 42.2155 18.3169 42.2667 20.3858 42.1673C21.81 42.0984 23.2283 41.9222 24.6496 41.7933C24.6791 41.9626 24.7086 42.1319 24.7382 42.3012C23.063 42.6585 21.3878 43.0177 19.6643 43.3858C20.7923 45.8376 20.7923 45.8238 22.8888 45.7549C24.1535 45.7136 25.4212 45.7283 26.687 45.7175C26.7067 45.8474 26.7254 45.9783 26.7451 46.1073C25.314 46.4134 23.8838 46.7185 22.3445 47.0482C23.8622 49.4065 23.8642 49.3868 26.2726 49.7067C26.746 49.7707 27.1909 50.0551 27.811 50.3022C26.8474 50.5827 26.1328 50.7894 25.4232 50.9961C26.5551 54.0433 29.2559 52.7175 31.1378 53.7254C30.3238 53.9016 29.5138 54.0787 28.2785 54.3484Z" fill="#0B6E4F"/>
<path d="M45.2047 15.4144C46.1762 16.6594 45.8533 17.5561 45.1831 18.3199C44.122 19.5295 42.9311 20.623 41.8652 21.8278C37.8327 26.3907 33.8219 30.9724 29.8209 35.562C29.1309 36.3533 28.5236 37.2185 27.938 37.9705C26.7087 38.2559 25.9784 37.6762 25.2726 36.9449C23.0758 34.6683 20.8494 32.4213 18.6476 30.1526C18.4311 29.9301 18.3002 29.625 18.062 29.253C18.8789 28.3159 19.6221 27.3553 20.4774 26.5089C21.6801 25.3189 22.5138 25.2146 23.9705 26.0758C24.876 26.6122 25.6634 27.3396 26.5433 27.9232C27.5423 28.5846 28.5443 28.9203 29.6604 28.0177C33.4537 24.9498 37.2923 21.939 41.0847 18.8711C41.8366 18.2628 42.4163 17.4439 43.1535 16.813C43.7756 16.2815 44.5089 15.8809 45.2047 15.4144ZM35.0049 26.2303C34.9282 26.1211 34.8524 26.0108 34.7766 25.9006C33.4862 27.1073 32.128 28.249 30.9222 29.5335C29.2776 31.2854 28.6801 31.502 26.5541 30.2795C25.1595 29.4764 23.8819 28.4675 22.4429 27.4754C21.8691 27.9468 21.3356 28.3848 20.6457 28.9508C23.0108 31.0374 25.2451 33.0079 27.5236 35.0187C29.8691 32.2648 32.437 29.248 35.0049 26.2303Z" fill="#0B6E4F"/>
</g>
<defs>
<clipPath id="clip0_1216_447">
<rect width="64" height="64" fill="white"/>
</clipPath>
</defs>
</svg>
