<svg width="64" height="64" viewBox="0 0 64 64" fill="none" xmlns="http://www.w3.org/2000/svg">
<path d="M13.7031 40.1041C16.7317 36.7609 22.7555 34.5118 29.2386 34.5118C34.8297 34.5118 39.809 36.1846 43.016 38.7893" stroke="#14191F" stroke-width="2" stroke-miterlimit="10"/>
<path d="M22.6406 44.2357C24.3435 43.1008 26.5869 42.4122 29.0025 42.4122C31.4177 42.4122 33.623 43.1006 35.302 44.2352" stroke="#14191F" stroke-width="2" stroke-miterlimit="10"/>
<path d="M35.0475 35.1424C37.5474 30.8077 42.2242 27.8868 47.5845 27.8737C55.4907 27.8544 62.0135 34.2659 62.1235 42.1713C62.2363 50.2764 55.6999 56.8821 47.6208 56.8821C46.1268 56.8821 44.6855 56.6562 43.3293 56.2366C40.9391 55.4972 38.382 55.5766 36.0191 56.3994C27.3443 59.4203 13.9423 58.1502 1.875 51.0649V27.7567C1.875 20.3737 3.48625 12.5673 8.09613 6.8003L8.68275 6.06655H26.5596V17.2518H16.403V12.7519" stroke="#14191F" stroke-width="2" stroke-miterlimit="10"/>
<path d="M21.0314 17.2517V21.7519C21.0314 23.5269 19.5924 24.9659 17.8174 24.9659H14.4745L16.8481 37.607" stroke="#14191F" stroke-width="2" stroke-miterlimit="10"/>
</svg>
